<?xml version="1.0" standalone="no"?>
<!DOCTYPE svg PUBLIC "-//W3C//DTD SVG 20010904//EN"
 "http://www.w3.org/TR/2001/REC-SVG-20010904/DTD/svg10.dtd">
<svg version="1.0" xmlns="http://www.w3.org/2000/svg"
 width="400.000000pt" height="400.000000pt" viewBox="0 0 400.000000 400.000000"
 preserveAspectRatio="xMidYMid meet">
<metadata>
Created by potrace 1.14, written by Peter Selinger 2001-2017
</metadata>
<g transform="translate(0.000000,400.000000) scale(0.100000,-0.100000)"
fill="#000000" stroke="none">
<path d="M1504 2346 c-47 -15 -104 -47 -104 -58 0 -11 9 -10 55 7 77 27 129
20 247 -36 113 -54 158 -59 158 -20 0 25 -11 32 -115 73 -106 42 -183 53 -241
34z"/>
<path d="M2358 2349 c-57 -13 -201 -70 -217 -85 -12 -11 -12 -16 -1 -28 21
-26 63 -19 157 27 79 38 95 42 163 42 58 0 84 -5 118 -22 52 -28 56 -14 5 19
-83 54 -144 66 -225 47z"/>
<path d="M1576 2165 c4 -8 8 -15 10 -15 2 0 4 7 4 15 0 8 -4 15 -10 15 -5 0
-7 -7 -4 -15z"/>
<path d="M1621 2168 c0 -9 -14 -20 -29 -26 -23 -8 -31 -6 -40 7 -11 14 -12 13
-7 -6 4 -14 2 -23 -5 -23 -7 0 -21 10 -31 23 l-20 22 16 -27 c16 -27 16 -28
-11 -52 -26 -22 -30 -23 -51 -8 -13 8 -26 13 -28 10 -3 -3 6 -11 20 -18 32
-17 27 -33 -11 -41 -23 -5 -24 -7 -6 -8 12 0 22 -7 22 -15 0 -8 10 -16 23 -18
13 -2 21 -9 19 -18 -3 -12 -1 -13 9 -2 18 17 29 15 29 -4 0 -14 3 -14 16 -3
13 10 17 10 25 -2 6 -10 9 -10 9 -1 0 6 7 12 15 12 8 0 15 -6 15 -12 0 -9 4
-8 10 2 8 11 12 12 18 3 5 -8 13 -9 22 -3 8 6 33 10 55 11 22 0 58 7 80 14
l40 14 -35 -5 c-19 -3 -43 -8 -52 -10 -22 -6 -22 4 -3 30 8 11 15 38 15 60 l1
41 39 -44 c22 -24 40 -50 40 -57 0 -8 5 -14 10 -14 16 0 -24 72 -57 101 -31
29 -82 49 -124 49 -18 0 -29 6 -32 18 -4 15 -5 15 -6 0z m9 -63 c0 -8 -6 -15
-14 -15 -17 0 -28 14 -19 24 12 12 33 6 33 -9z m-79 -102 c13 -15 11 -16 -20
-10 -18 4 -40 7 -47 7 -21 0 -17 15 13 51 l28 32 6 -31 c4 -18 13 -39 20 -49z
m139 33 c0 -3 -4 -8 -10 -11 -5 -3 -10 -1 -10 4 0 6 5 11 10 11 6 0 10 -2 10
-4z"/>
<path d="M2371 2168 c-1 -13 -9 -18 -30 -18 -42 0 -93 -20 -124 -49 -33 -29
-73 -101 -57 -101 5 0 10 6 10 14 0 7 18 33 40 57 l39 44 1 -41 c0 -22 7 -49
15 -60 19 -26 19 -36 -2 -30 -10 2 -34 7 -53 10 l-35 5 40 -14 c22 -7 58 -14
80 -14 22 -1 47 -5 55 -11 9 -6 17 -5 22 3 6 9 10 8 18 -3 6 -10 10 -11 10 -2
0 6 7 12 15 12 8 0 15 -6 15 -12 0 -9 3 -9 9 1 8 13 12 13 27 0 16 -12 17 -12
11 4 -8 20 13 23 32 5 10 -11 12 -10 9 2 -2 9 6 16 20 18 12 2 22 10 22 17 0
7 10 16 23 18 19 4 19 4 -5 6 -27 1 -50 22 -31 28 6 2 19 10 29 18 18 13 18
14 -4 8 -12 -3 -25 -10 -28 -15 -3 -5 -12 -4 -20 3 -11 9 -10 14 9 31 l22 19
-25 -15 c-16 -10 -30 -12 -39 -6 -12 7 -12 13 3 37 l17 28 -20 -22 c-10 -13
-24 -23 -31 -23 -7 0 -9 8 -5 23 6 18 5 20 -6 10 -21 -21 -59 -16 -69 10 -7
17 -9 18 -9 5z m-24 -53 c7 -20 -2 -29 -21 -22 -9 4 -13 13 -10 22 8 19 23 19
31 0z m183 -105 c0 -6 -6 -10 -14 -10 -7 0 -28 -3 -46 -7 l-33 -6 16 24 c9 13
17 35 17 49 l1 25 29 -33 c17 -18 30 -37 30 -42z m-120 20 c0 -5 -4 -10 -10
-10 -5 0 -10 5 -10 10 0 6 5 10 10 10 6 0 10 -4 10 -10z"/>
<path d="M2411 2164 c0 -11 3 -14 6 -6 3 7 2 16 -1 19 -3 4 -6 -2 -5 -13z"/>
<path d="M1462 2104 c10 -10 20 -15 24 -12 3 4 -5 12 -18 18 -22 12 -22 12 -6
-6z"/>
</g>
</svg>
